PathFileType	4	(X/Y/Z)	C:/Users/opensim2020/Desktop/walking_exp_matlab/subject06_walking15_straight_01.trc	
DataRate	CameraRate	NumFrames	NumMarkers	Units	OrigDataRate	OrigDataStartFrame	OrigNumFrames	
100.00	100.00	7	47	mm	100.00	892	232	
Frame#	Time	LFHD			RFHD			LBHD			RBHD			C7			T10			CLAV			STRN			RBAK			LSHO			LUPA			LELB			LFRM			LWRA			LWRB			LFIN			RSHO			RUPA			RELB			RFRM			RWRA			RWRB			RFIN			LASI			RASI			LPSI			RPSI			LTHI			LKNE			LTIB			LANK			LHEE			LTOE			RTHI			RKNE			RTIB			RANK			RHEE			RTOE			*39			*40			*41			*42			*43			*44			*45			*46			
		X1	Y1	Z1	X2	Y2	Z2	X3	Y3	Z3	X4	Y4	Z4	X5	Y5	Z5	X6	Y6	Z6	X7	Y7	Z7	X8	Y8	Z8	X9	Y9	Z9	X10	Y10	Z10	X11	Y11	Z11	X12	Y12	Z12	X13	Y13	Z13	X14	Y14	Z14	X15	Y15	Z15	X16	Y16	Z16	X17	Y17	Z17	X18	Y18	Z18	X19	Y19	Z19	X20	Y20	Z20	X21	Y21	Z21	X22	Y22	Z22	X23	Y23	Z23	X24	Y24	Z24	X25	Y25	Z25	X26	Y26	Z26	X27	Y27	Z27	X28	Y28	Z28	X29	Y29	Z29	X30	Y30	Z30	X31	Y31	Z31	X32	Y32	Z32	X33	Y33	Z33	X34	Y34	Z34	X35	Y35	Z35	X36	Y36	Z36	X37	Y37	Z37	X38	Y38	Z38	X39	Y39	Z39	X40	Y40	Z40	X41	Y41	Z41	X42	Y42	Z42	X43	Y43	Z43	X44	Y44	Z44	X45	Y45	Z45	X46	Y46	Z46	X47	Y47	Z47	

117	1.160	1350.72839	-63.22945	1673.17737	1482.45483	-57.32612	1667.87488	1358.55396	-194.03145	1613.45569	1488.30005	-187.15504	1613.45288	1416.28711	-187.18924	1459.16138	1427.36377	-221.36688	1132.00952	1419.61267	-74.54668	1384.19629	1414.64636	-33.47883	1209.69519	1492.54810	-260.86948	1291.16492	1256.27405	-130.22289	1413.60266	1183.46582	-117.62121	1211.12463	1171.35815	-110.61240	1098.50818	1152.74036	-52.03683	959.89856	1196.34265	36.80449	867.88812	1161.43433	-20.00550	844.82507	1160.00146	42.66404	780.02893	1579.12463	-126.21159	1416.51501	1665.72461	-186.90538	1224.48962	1679.12915	-191.94514	1102.29456	1700.32861	-195.00827	982.50323	1675.85718	-158.13983	832.86377	1714.26306	-210.78224	845.70135	1719.80664	-187.89313	763.95618	1325.88843	-41.27828	971.29700	1544.95313	-49.34373	979.67847	1350.53760	-201.65610	998.02484	1518.38696	-200.38512	999.25385	1276.50208	-104.83823	653.93347	1305.26404	-105.84348	490.72144	1321.04346	-157.42413	238.49310	1370.06140	-178.07994	69.49688	1413.76074	-221.17464	57.60339	1380.26160	-33.81817	40.45607	1612.66174	-29.96319	652.35999	1593.84644	16.52805	534.77777	1582.27490	-108.55444	307.09329	1534.75684	-195.91083	144.35873	1483.17310	-234.20531	132.05681	1563.47717	-73.29343	56.55483	1412.63000	-162.65344	1710.45093																					 
118	1.170	1351.07788	-52.80047	1672.78870	1482.80383	-46.97222	1667.38635	1358.47815	-183.54659	1613.56775	1488.24487	-177.10068	1613.43628	1415.91504	-177.18771	1458.91895	1426.52112	-211.64355	1131.78784	1419.58276	-64.65891	1383.96838	1414.29919	-23.67393	1209.43140	1491.43054	-251.13547	1290.78735	1256.04590	-119.90773	1413.83972	1182.77893	-105.65588	1211.72742	1170.26807	-97.13935	1099.26807	1151.78516	-35.39941	961.95361	1195.81287	55.46725	872.18231	1160.69446	-0.69234	847.70355	1159.32605	63.27483	784.36896	1578.92871	-116.88713	1416.07422	1664.98779	-178.92490	1224.36414	1678.38843	-184.68616	1102.19409	1699.57874	-188.96454	982.40991	1675.49768	-153.44473	832.45984	1713.43140	-206.34935	845.76422	1718.74170	-184.64630	763.73572	1325.20947	-32.04029	970.60278	1544.27771	-39.43790	979.67853	1350.02930	-192.23209	997.87714	1518.00879	-190.80780	999.26257	1276.38452	-98.34883	653.41931	1304.94836	-101.58993	490.12552	1320.54834	-155.73622	238.34750	1370.19385	-177.88745	69.58490	1413.88635	-221.05856	57.89085	1380.32117	-33.67474	40.27048	1611.47900	-17.72168	653.16388	1592.21826	29.27857	536.20093	1582.02148	-87.00879	303.13022	1536.01965	-165.74509	135.87997	1484.30713	-203.49207	121.07315	1564.69666	-38.78249	54.75726	1412.79248	-152.02196	1710.36938																					 
119	1.180	1351.38208	-41.94881	1672.47229	1483.12061	-36.63274	1666.81982	1358.39197	-173.07082	1613.55334	1488.11157	-166.94087	1613.19751	1415.64111	-167.41138	1458.63928	1425.74939	-201.90907	1131.50354	1419.43530	-54.80353	1383.59253	1413.93982	-13.91852	1209.00610	1490.47034	-241.56721	1290.36292	1255.87561	-109.58320	1413.88440	1181.92017	-94.07723	1212.19727	1169.27332	-83.94666	1099.73547	1150.96887	-19.26228	963.91608	1195.35425	73.74957	876.38422	1160.12415	18.28641	850.59070	1159.13220	83.88694	788.71814	1578.69470	-107.59404	1415.50867	1664.30029	-170.94212	1224.10486	1677.63330	-177.37746	1101.99438	1698.86292	-182.82956	982.26880	1675.14551	-148.55748	831.99957	1712.62939	-201.61397	845.66565	1717.92957	-180.77144	763.35492	1324.48730	-22.81888	969.76825	1543.61035	-29.47124	979.41504	1349.63232	-182.90808	997.61731	1517.65247	-180.74557	999.04919	1276.18994	-91.94510	652.78156	1304.61621	-97.23532	489.48187	1320.29370	-154.08640	238.14838	1370.24475	-177.75613	69.69789	1414.16223	-221.16968	58.17914	1380.21692	-33.52086	40.07428	1610.30249	-5.86987	653.57910	1590.42139	41.66657	537.18243	1581.62097	-65.48657	299.26926	1536.79504	-135.38934	127.29106	1485.47803	-172.32431	110.55831	1565.60681	-4.19468	53.39776	1412.90894	-141.43333	1710.17053																					 
120	1.190	1351.75061	-31.35234	1672.02319	1483.52588	-26.37246	1666.17419	1358.36877	-162.59027	1613.33191	1488.10669	-156.77538	1612.91638	1415.33252	-157.36496	1458.24500	1425.10217	-192.07912	1131.03198	1419.32178	-44.94253	1383.02942	1413.53760	-4.17167	1208.46155	1489.58411	-231.89815	1289.84619	1255.68701	-99.24621	1413.83679	1181.17859	-82.60937	1212.50562	1168.25342	-70.86238	1100.19666	1150.19116	-3.16368	965.75372	1194.98853	91.95825	880.78821	1159.69434	37.06338	853.44531	1158.89343	104.13976	793.20392	1578.47961	-98.24843	1414.83057	1663.63879	-162.83734	1223.71521	1676.93384	-170.05066	1101.66492	1698.16309	-176.59134	982.00195	1674.78479	-143.42455	831.39081	1711.87866	-196.64294	845.56470	1717.21667	-176.53319	763.04767	1324.34473	-15.72865	968.66394	1542.84607	-19.46541	979.03320	1349.39685	-173.69989	997.14508	1517.47217	-170.81146	998.65106	1276.12866	-85.53631	652.11945	1304.39417	-92.74596	488.84021	1319.93176	-152.22615	238.08949	1370.27710	-177.51678	69.79958	1414.11975	-221.23079	58.69744	1380.18726	-33.41831	39.91717	1609.61975	5.77849	653.98517	1588.77234	53.55265	537.73718	1581.33594	-44.11738	295.25998	1537.70325	-104.67280	119.40092	1486.53528	-141.03534	100.78872	1566.50366	30.24921	52.41133	1413.03369	-130.84445	1709.84045																					 
121	1.200	1352.12158	-21.00594	1671.37061	1483.85608	-16.18689	1665.43127	1358.38098	-152.20343	1613.02368	1488.26062	-146.74338	1612.37476	1415.04663	-147.30402	1457.76648	1424.55420	-182.42947	1130.45947	1419.32996	-35.02387	1382.47009	1413.18884	5.58897	1207.77881	1488.70715	-222.21255	1289.18567	1255.55164	-88.89838	1413.57800	1180.62109	-71.10013	1212.56665	1167.31458	-57.99211	1100.46057	1149.47559	12.74999	967.53668	1194.68762	109.84106	885.13171	1159.38135	55.63424	856.28687	1159.00061	124.17519	797.70837	1578.35071	-88.84750	1414.04565	1662.95178	-154.79179	1223.27795	1676.26318	-162.69266	1101.26721	1697.52783	-170.16914	981.65894	1675.27026	-136.69731	831.59937	1711.16211	-191.44279	845.36200	1716.73853	-171.93988	762.66040	1323.38062	-6.26418	967.98413	1542.11560	-9.24798	978.55829	1349.40613	-164.67963	996.58545	1517.54504	-160.75941	998.12067	1275.98938	-79.00622	651.52466	1304.21704	-88.08371	488.21158	1319.56665	-150.25233	238.07513	1370.32874	-177.21523	70.01787	1414.12122	-221.04921	59.06446	1380.20300	-33.36102	39.78688	1608.66821	16.84612	653.88336	1587.25061	64.95096	538.01508	1581.09705	-22.62660	291.18756	1538.42505	-73.69505	112.01399	1487.33386	-109.27326	91.58903	1566.98279	64.54700	51.78417	1413.30933	-120.40002	1709.39893																					 
122	1.210	1352.46240	-10.33383	1670.80859	1484.30969	-5.94003	1664.58228	1358.41870	-141.81348	1612.58911	1488.14917	-136.53062	1611.75916	1414.76904	-137.14246	1457.21899	1424.06091	-172.51418	1129.87598	1419.31177	-25.15923	1381.69482	1412.84583	15.33393	1206.96228	1487.90210	-212.59395	1288.38831	1255.46045	-78.38589	1413.21204	1180.08948	-59.47966	1212.50879	1166.43164	-45.34940	1100.55066	1148.84229	28.42508	969.28461	1194.52710	127.37460	889.41547	1159.31726	74.02375	859.12335	1158.91602	143.82927	802.30054	1578.25537	-79.39618	1413.18140	1662.32178	-146.68221	1222.69495	1675.63574	-155.20088	1100.74744	1696.94116	-163.66487	981.25958	1674.95984	-131.13651	830.83545	1710.52515	-186.15640	845.21149	1716.28796	-167.11302	762.34576	1322.56274	2.71673	967.07031	1541.42310	1.11672	978.01184	1349.43848	-155.66190	995.76678	1517.62891	-150.59758	997.49347	1275.84656	-72.42785	650.77313	1304.03174	-83.30238	487.53687	1319.35828	-148.05154	237.91502	1370.43225	-176.86472	70.20679	1414.13220	-220.79727	59.38745	1380.18787	-33.14316	39.65209	1607.77527	27.44477	653.41644	1585.54199	76.10797	537.79755	1580.95618	-0.98106	287.04337	1539.01990	-42.52847	105.22477	1488.09155	-77.45820	83.35646	1566.97998	98.56413	51.25917	1413.54224	-109.98833	1708.77539																					 
123	1.220	1352.89978	0.12662	1670.04028	1484.69629	4.25610	1663.63721	1358.52161	-131.44279	1611.90295	1488.33008	-126.43888	1610.85144	1414.53467	-126.92997	1456.46619	1423.80310	-162.75818	1129.19250	1419.32117	-15.13070	1380.87170	1412.49756	25.08559	1206.04163	1487.16980	-202.81935	1287.56531	1255.41541	-67.98486	1412.65088	1179.81494	-47.88505	1212.26880	1165.60913	-32.73819	1100.52368	1148.34631	43.87136	970.84949	1194.46045	144.65195	893.68494	1159.25623	91.94469	861.84760	1159.12805	163.48056	806.91864	1578.16821	-69.84444	1412.20264	1661.66687	-138.47464	1222.12598	1675.06860	-147.63174	1100.20789	1696.40234	-156.93987	980.73053	1674.78833	-125.16914	830.10437	1709.88171	-180.30043	844.81470	1716.01404	-161.91641	761.93073	1321.63928	11.79307	966.19073	1540.64941	11.53590	977.17712	1349.68494	-146.40228	994.90820	1517.76062	-140.34610	996.67926	1275.83765	-65.82677	649.99066	1303.98584	-78.20308	486.77618	1319.54138	-145.70888	237.73447	1370.56116	-176.47620	70.43562	1414.25598	-220.60056	59.76773	1379.80017	-32.84277	39.74652	1607.00378	37.70656	652.60767	1584.21765	86.77977	537.26123	1580.90588	20.83860	282.93381	1539.52759	-11.17613	99.06081	1488.85352	-44.85882	75.72010	1566.44934	132.25450	50.87813	1413.81201	-99.59326	1708.02991																					 
